<?xml version="1.0" encoding="UTF-8"?>
<svg xmlns="http://www.w3.org/2000/svg" xmlns:xlink="http://www.w3.org/1999/xlink" width="128pt" height="128pt" viewBox="0 0 128 128" version="1.1">
<g id="surface17470153">
<path style=" stroke:none;fill-rule:nonzero;fill:rgb(100%,100%,100%);fill-opacity:1;" d="M 64 13.5 C 36.199219 13.5 13.5 36.199219 13.5 64 C 13.5 91.800781 36.199219 114.5 64 114.5 C 91.800781 114.5 114.5 91.800781 114.5 64 C 114.5 36.199219 91.800781 13.5 64 13.5 Z M 64 19.5 C 88.5 19.5 108.5 39.5 108.5 64 C 108.5 88.5 88.5 108.5 64 108.5 C 39.5 108.5 19.5 88.5 19.5 64 C 19.5 39.5 39.5 19.5 64 19.5 Z M 64 31 C 62.300781 31 61 32.300781 61 34 L 61 58.800781 C 59.199219 59.800781 58 61.800781 58 64 C 58 67.300781 60.699219 70 64 70 C 66.199219 70 68.199219 68.800781 69.199219 67 L 84 67 C 85.699219 67 87 65.699219 87 64 C 87 62.300781 85.699219 61 84 61 L 69.199219 61 C 68.699219 60.101562 67.898438 59.300781 67 58.800781 L 67 34 C 67 32.300781 65.699219 31 64 31 Z M 64 31 "/>
</g>
</svg>
