<svg id="regular" enable-background="new 0 0 24 24" height="512" viewBox="0 0 24 24" width="512" xmlns="http://www.w3.org/2000/svg"><path d="m20.25.75h-16.5v8.5c0 1.105.895 2 2 2h12.5c1.105 0 2-.895 2-2z" fill="#eceff1"/><circle cx="4" cy="15" fill="#4caf50" r="1.364"/><circle cx="20" cy="15" fill="#4caf50" r="1.458"/><circle cx="12" cy="14.5" fill="#2196f3" r="2.5"/><path d="m14.75 19.75h-5.5c-1.105 0-2 .895-2 2v2.25h9.5v-2.25c0-1.105-.895-2-2-2z" fill="#2196f3"/><path d="m5.25 18.75h-2.5c-1.105 0-2 .895-2 2v1.25h6.5v-1.25c0-1.105-.895-2-2-2z" fill="#4caf50"/><path d="m21.25 18.75h-2.5c-1.105 0-2 .895-2 2v1.25h6.5v-1.25c0-1.105-.895-2-2-2z" fill="#4caf50"/><path d="m22.25 1.5h-20.5c-.414 0-.75-.336-.75-.75s.336-.75.75-.75h20.5c.414 0 .75.336.75.75s-.336.75-.75.75z"/><path d="m18.25 12h-1.5c-.414 0-.75-.336-.75-.75s.336-.75.75-.75h1.5c.689 0 1.25-.561 1.25-1.25v-7.75h-15v7.75c0 .689.561 1.25 1.25 1.25h1.5c.414 0 .75.336.75.75s-.336.75-.75.75h-1.5c-1.517 0-2.75-1.233-2.75-2.75v-8.5c0-.414.336-.75.75-.75h16.5c.414 0 .75.336.75.75v8.5c0 1.517-1.233 2.75-2.75 2.75z"/><path d="m8.25 9c-.192 0-.384-.073-.53-.22-.293-.293-.293-.768 0-1.061l2.5-2.5c.239-.24.609-.29.902-.121l1.273.728 2.846-2.627c.303-.28.779-.262 1.06.042.281.305.262.779-.042 1.06l-3.25 3c-.24.222-.596.263-.881.1l-1.252-.716-2.096 2.095c-.146.147-.338.22-.53.22z"/><path d="m15.75 7c-.414 0-.75-.336-.75-.75v-1.75h-1.75c-.414 0-.75-.336-.75-.75s.336-.75.75-.75h2.5c.414 0 .75.336.75.75v2.5c0 .414-.336.75-.75.75z"/><path d="m20 17c-1.103 0-2-.897-2-2s.897-2 2-2 2 .897 2 2-.897 2-2 2zm0-2.5c-.276 0-.5.224-.5.5s.224.5.5.5.5-.224.5-.5-.224-.5-.5-.5z"/><path d="m23.25 22c-.414 0-.75-.336-.75-.75v-.5c0-.689-.561-1.25-1.25-1.25h-2.5c-.414 0-.75-.336-.75-.75s.336-.75.75-.75h2.5c1.517 0 2.75 1.233 2.75 2.75v.5c0 .414-.336.75-.75.75z"/><path d="m4 17c-1.103 0-2-.897-2-2s.897-2 2-2 2 .897 2 2-.897 2-2 2zm0-2.5c-.276 0-.5.224-.5.5s.224.5.5.5.5-.224.5-.5-.224-.5-.5-.5z"/><path d="m.75 22c-.414 0-.75-.336-.75-.75v-.5c0-1.517 1.233-2.75 2.75-2.75h2.5c.414 0 .75.336.75.75s-.336.75-.75.75h-2.5c-.689 0-1.25.561-1.25 1.25v.5c0 .414-.336.75-.75.75z"/><path d="m12 17.5c-1.654 0-3-1.346-3-3s1.346-3 3-3 3 1.346 3 3-1.346 3-3 3zm0-4.5c-.827 0-1.5.673-1.5 1.5s.673 1.5 1.5 1.5 1.5-.673 1.5-1.5-.673-1.5-1.5-1.5z"/><path d="m16.75 24c-.414 0-.75-.336-.75-.75v-1.5c0-.689-.561-1.25-1.25-1.25h-5.5c-.689 0-1.25.561-1.25 1.25v1.5c0 .414-.336.75-.75.75s-.75-.336-.75-.75v-1.5c0-1.517 1.233-2.75 2.75-2.75h5.5c1.517 0 2.75 1.233 2.75 2.75v1.5c0 .414-.336.75-.75.75z"/></svg>