<svg id="_x33_0" enable-background="new 0 0 64 64" height="512" viewBox="0 0 64 64" width="512" xmlns="http://www.w3.org/2000/svg"><g><path d="m5 41h14v-6h-14zm2-4h10v2h-10z"/><path d="m5 59h14v-16h-14zm2-6h2v4h-2zm6-4v2h-2v-2zm-2-2v-2h2v2zm4 2h2v2h-2zm-2 4v4h-2v-4zm-4-2h-2v-2h2zm6 6v-4h2v4zm2-10h-2v-2h2zm-8-2v2h-2v-2z"/><path d="m63 5v-2c0-1.103-.897-2-2-2h-58c-1.103 0-2 .897-2 2v2c0 1.103.897 2 2 2v24c-1.103 0-2 .897-2 2v28c0 1.103.897 2 2 2h18c1.103 0 2-.897 2-2v-10h30v8c0 2.206 1.794 4 4 4h2c2.206 0 4-1.794 4-4v-27.181l-2-5.335v-19.484c1.103 0 2-.897 2-2zm-60-2h58l.001 2h-58.001zm0 58v-28h18l.002 28zm26-45.595v14.007l-6.024 3.347c-.121-.989-.956-1.759-1.976-1.759h-2.026zm16.006 21.788-14.006-7.781v-14.007zm-22.006-2.161 7-3.888 14.141 7.856h-21.141zm36.058-8.032h-2.115l.642-1.711c.131-.346.701-.346.832 0zm-2.865 2h3.615l.75 2h-5.114zm-1.193 24h6v2h-6zm4-2v-18h2v18zm-4-18h2v18h-2zm4 28h-2c-1.103 0-2-.897-2-2v-2h6v2c0 1.103-.897 2-2 2zm0-37.779c-.31-.14-.648-.221-1-.221-1.012 0-1.931.637-2.288 1.585l-2.712 7.234v17.181h-30v-8h26.832l-9.555-14.863 5.137-5.137h9.586v-2h-10.414l-5.416 5.416-9.17-14.265-7.605 11.83-4.981-4.981h-10.414v2h9.586l4.702 4.702-4.691 7.298h-11.597v-24h54z"/><path d="m27 43h2v2h-2z"/><path d="m31 43h2v2h-2z"/><path d="m35 43h2v2h-2z"/><path d="m45 11h10v2h-10z"/><path d="m53 15h2v2h-2z"/><path d="m45 15h6v2h-6z"/><path d="m7 9h10v2h-10z"/><path d="m7 13h6v2h-6z"/><path d="m15 13h2v2h-2z"/></g></svg>